<svg width="80" height="78" viewBox="0 0 80 78" fill="none" xmlns="http://www.w3.org/2000/svg">
<path d="M42.4579 61.0019L58.7075 29.8471L78.4392 67.9252H6.47656L36.6544 16.0005L49.422 37.9243" stroke="white" stroke-width="2" stroke-linejoin="round"/>
<path d="M36.6545 16.0005V1H51.7435L45.94 6.76942L51.7435 12.5388H40.1366" stroke="white" stroke-width="2"/>
<path d="M27.3457 31.944L33.1927 29.7852L36.7008 31.944L40.209 29.7852L46.056 31.944" stroke="white" stroke-width="2" stroke-linejoin="round"/>
<path d="M51.813 43.458H55.2312L58.6494 45.6169L62.0677 43.458H65.4859" stroke="white" stroke-width="2" stroke-linejoin="round"/>
<path d="M36.7009 34.8225V36.9814" stroke="white" stroke-width="2" stroke-linejoin="round"/>
<path d="M36.7009 39.8599V42.0187" stroke="white" stroke-width="2" stroke-linejoin="round"/>
<path d="M36.7009 44.8972V47.0561" stroke="white" stroke-width="2" stroke-linejoin="round"/>
<path d="M36.7009 49.9346V52.0934" stroke="white" stroke-width="2" stroke-linejoin="round"/>
<path d="M36.7009 54.9719V57.1308" stroke="white" stroke-width="2" stroke-linejoin="round"/>
<path d="M36.7009 59.2898V61.4487" stroke="white" stroke-width="2" stroke-linejoin="round"/>
<path d="M36.7009 63.6074V65.7663" stroke="white" stroke-width="2" stroke-linejoin="round"/>
<path d="M36.7009 70.0842V72.2431" stroke="white" stroke-width="2" stroke-linejoin="round"/>
</svg>
