<svg width="104" height="77" viewBox="0 0 104 77" fill="none" xmlns="http://www.w3.org/2000/svg">
<path fill-rule="evenodd" clip-rule="evenodd" d="M38.2654 43.2194C38.2654 47.6837 35.8617 51.5102 32.143 51.5102C28.4242 51.5102 26.0205 47.6837 26.0205 43.2194C26.0205 38.7551 27.245 36.2041 32.143 36.2041C37.0409 36.2041 38.2654 38.7551 38.2654 43.2194Z" stroke="white" stroke-width="2"/>
<path d="M35.2041 49.2144L42.8571 54.3164V56.8674C42.8571 58.9809 41.5816 60.6939 40.3061 60.6939H22.449C21.1735 60.6939 19.8979 58.9809 19.8979 56.8674V54.3164L27.551 49.2144" stroke="white" stroke-width="2"/>
<path fill-rule="evenodd" clip-rule="evenodd" d="M47.449 63.6701C47.449 65.0314 46.3413 66.1361 44.9765 66.1361H38.7952L43.7402 76.0001L23.96 66.1361H17.7787C16.4126 66.1361 15.3062 65.0314 15.3062 63.6701V34.0783C15.3062 32.7158 16.4126 31.6123 17.7787 31.6123H44.9765C46.3413 31.6123 47.449 32.7158 47.449 34.0783V63.6701Z" stroke="white" stroke-width="2" stroke-linejoin="round"/>
<path fill-rule="evenodd" clip-rule="evenodd" d="M82.6531 30.9745C82.6531 35.4388 80.2494 39.2654 76.5307 39.2654C72.8119 39.2654 70.4082 35.4388 70.4082 30.9745C70.4082 26.5102 71.6327 23.9592 76.5307 23.9592C81.4286 23.9592 82.6531 26.5102 82.6531 30.9745Z" stroke="white" stroke-width="2"/>
<path d="M80.3571 36.9695L88.0102 42.0715V44.6225C88.0102 46.7361 86.7347 48.4491 85.4592 48.4491H67.602C66.3265 48.4491 65.051 46.7361 65.051 44.6225V42.0715L72.7041 36.9695" stroke="white" stroke-width="2"/>
<path d="M69.1131 18.6021H90.1296C91.4944 18.6021 92.6021 19.7056 92.6021 21.068V50.6599C92.6021 52.0211 91.4944 53.1259 90.1296 53.1259H83.9482L64.168 62.9898L69.1131 53.1259H62.9318C61.5657 53.1259 60.4592 52.0211 60.4592 50.6599V39.5629" stroke="white" stroke-width="2" stroke-linejoin="round"/>
<path fill-rule="evenodd" clip-rule="evenodd" d="M55.1021 13.3725C55.1021 17.8368 52.6984 21.6633 48.9796 21.6633C45.2609 21.6633 42.8572 17.8368 42.8572 13.3725C42.8572 8.9082 44.0817 6.35718 48.9796 6.35718C53.8776 6.35718 55.1021 8.9082 55.1021 13.3725Z" stroke="white" stroke-width="2"/>
<path d="M38.2654 27.7856V25.2346L45.9184 20.1326" stroke="white" stroke-width="2"/>
<path d="M52.478 20.1326L59.6938 25.2346V27.7856C59.6938 29.8992 58.4911 31.6122 57.2885 31.6122H51.2754" stroke="white" stroke-width="2"/>
<path d="M32.9082 27.4698V3.52093C32.9082 2.12812 34.0147 1 35.3807 1H62.5785C63.9434 1 65.0511 2.12812 65.0511 3.52093V33.7721C65.0511 35.1637 63.9434 36.2931 62.5785 36.2931H56.3972L51.4534 43.8571" stroke="white" stroke-width="2" stroke-linejoin="round"/>
</svg>
