<svg width="89" height="76" viewBox="0 0 89 76" fill="none" xmlns="http://www.w3.org/2000/svg">
<path d="M61.4286 51.7281V69.1821C61.4286 72.3959 58.8531 75 55.6746 75H25.754C22.5755 75 20 72.3959 20 69.1821V8.67515C20 5.4613 22.5755 2.85718 25.754 2.85718H55.6746C58.8531 2.85718 61.4286 5.4613 61.4286 8.67515V28.4563" stroke="white" stroke-width="2"/>
<path d="M38.5715 68.5715H43.5715" stroke="white" stroke-width="2"/>
<path d="M35 9.28564H46.4286" stroke="white" stroke-width="2"/>
<path d="M57.8571 46.7292V60.7142H25V16.4285H57.8571V32.7443" stroke="white" stroke-width="2"/>
<path fill-rule="evenodd" clip-rule="evenodd" d="M87.1428 40C87.1428 47.1006 81.3863 52.8571 74.2856 52.8571C67.185 52.8571 61.4285 47.1006 61.4285 40C61.4285 32.8993 67.185 27.1428 74.2856 27.1428C81.3863 27.1428 87.1428 32.8993 87.1428 40Z" stroke="white" stroke-width="2"/>
<path d="M44.2856 37.1428H61.4285" stroke="white" stroke-width="2"/>
<path d="M45.3175 33.4821V30H40.7144V48.5714H45.3175V43.9286H61.4286" stroke="white" stroke-width="2"/>
</svg>
