<svg width="253" height="56" viewBox="0 0 253 56" fill="none" xmlns="http://www.w3.org/2000/svg">
<path d="M71.783 36H81.701V34.84L80.367 34.579C79.323 34.347 79.149 34.289 79.149 32.549V17.672C79.468 17.556 80.309 17.44 81.121 17.44C83.528 17.44 84.398 18.629 84.398 22.196C84.398 25.995 83.383 26.807 80.947 26.807V27.909C81.266 28.054 82.049 28.402 83.412 28.402C87.211 28.402 89.705 25.328 89.705 21.993C89.705 17.904 86.863 15.903 81.44 15.903H71.783V17.034L72.943 17.295C73.755 17.469 73.958 17.585 73.958 19.354V32.549C73.958 34.318 73.697 34.405 72.798 34.637L71.783 34.84V36ZM97.9286 36.348C100.945 36.348 103.207 35.043 104.222 33.97V32.665C103.062 33.216 101.728 33.767 99.7846 33.767C96.7686 33.767 94.9996 32.375 94.7676 28.112H104.657C104.57 22.631 102.018 20.543 97.9286 20.543C94.0136 20.543 90.2146 23.414 90.2146 28.402C90.2146 33.361 92.7376 36.348 97.9286 36.348ZM97.7256 21.993C99.5816 21.993 100.046 22.95 100.046 26.401L94.7676 26.662C94.9126 23.24 96.1306 21.993 97.7256 21.993ZM105.665 36H114.162V34.869L113.118 34.666C112.277 34.521 112.161 34.376 112.161 33.013V24.197C112.596 23.82 113.118 23.327 113.669 23.327C113.988 23.327 114.249 23.414 114.452 23.733C114.974 24.632 115.409 24.922 116.743 24.922C117.99 24.922 118.744 24.081 118.744 22.718C118.744 21.326 117.874 20.572 116.511 20.572C114.8 20.572 112.973 21.79 112.045 22.776H111.9L112.103 20.862L111.697 20.572L105.578 21.239V22.167L106.593 22.805C107.434 23.356 107.579 23.443 107.579 24.661V33.013C107.579 34.231 107.463 34.434 106.506 34.666L105.665 34.869V36ZM124.672 36.348C128.935 36.348 131.342 34.202 131.342 31.186C131.342 28.924 129.863 27.59 126.412 26.372C123.947 25.531 123.164 24.922 123.164 23.936C123.164 22.66 124.092 22.022 125.571 22.022C126.76 22.022 127.108 22.312 127.543 22.747C128.123 23.414 128.616 23.994 129.225 25.009H130.298L130.153 21.065C129.254 20.746 127.804 20.543 126.064 20.543C122.062 20.543 119.8 22.66 119.8 25.415C119.8 27.822 121.453 29.098 124.121 30.113C126.673 31.041 127.746 31.621 127.746 32.955C127.746 34.231 126.818 34.869 125.223 34.869C123.918 34.869 123.106 34.463 122.555 33.883C121.772 33.042 121.424 32.462 120.873 31.36H119.713L119.974 35.797C121.163 36.116 122.932 36.348 124.672 36.348ZM132.302 42.351H140.886V41.249L139.784 41.017C138.885 40.785 138.798 40.698 138.798 39.364V37.827C138.798 37.334 138.74 36.87 138.711 36.551C138.682 36.348 138.682 36.203 138.653 36.058C139.32 36.261 140.364 36.348 141.031 36.348C146.048 36.348 149.673 33.68 149.673 27.677C149.673 22.37 146.657 20.572 143.815 20.572C141.727 20.572 139.987 21.5 138.682 22.544H138.566L138.74 20.833L138.334 20.572L132.215 21.239V22.167L133.23 22.805C134.071 23.356 134.216 23.443 134.216 24.661V39.364C134.216 40.64 134.1 40.785 133.143 41.017L132.302 41.249V42.351ZM141.205 34.84C140.161 34.84 139.349 34.405 138.798 33.796V23.849C139.233 23.646 140.045 23.182 141.292 23.182C143.641 23.182 144.975 24.719 144.975 28.663C144.975 33.68 143.641 34.84 141.205 34.84ZM159.075 36.348C162.091 36.348 164.353 35.043 165.368 33.97V32.665C164.208 33.216 162.874 33.767 160.931 33.767C157.915 33.767 156.146 32.375 155.914 28.112H165.803C165.716 22.631 163.164 20.543 159.075 20.543C155.16 20.543 151.361 23.414 151.361 28.402C151.361 33.361 153.884 36.348 159.075 36.348ZM158.872 21.993C160.728 21.993 161.192 22.95 161.192 26.401L155.914 26.662C156.059 23.24 157.277 21.993 158.872 21.993ZM174.638 36.348C177.799 36.348 180.032 34.956 180.873 33.941V32.636C179.742 33.187 178.582 33.767 176.726 33.767C173.362 33.767 171.825 31.476 171.825 27.3C171.825 23.066 173.681 22.051 175.421 22.051C176.378 22.051 176.61 22.225 176.755 23.356C176.871 24.545 177.335 25.56 178.843 25.56C180.09 25.56 180.902 24.4 180.902 23.24C180.902 21.5 179.191 20.543 176.204 20.543C172.115 20.543 167.214 22.544 167.214 28.605C167.214 33.332 169.882 36.348 174.638 36.348ZM187.555 36.348C189.991 36.348 191.499 35.565 192.166 34.84V33.68C191.615 33.796 190.716 33.999 190.02 33.999C188.541 33.999 188.048 33.419 188.048 31.998V23.008H191.615L192.108 20.949H188.048V17.005H186.047C185.206 19.47 183.872 21.181 181.552 21.964V23.008H183.437V32.404C183.437 35.217 184.974 36.348 187.555 36.348ZM196.83 18.774C198.309 18.774 199.527 17.672 199.527 16.251C199.527 14.772 198.309 13.728 196.83 13.728C195.235 13.728 194.046 14.772 194.046 16.251C194.046 17.672 195.235 18.774 196.83 18.774ZM192.741 36H201.122V34.869L200.281 34.666C199.353 34.434 199.237 34.318 199.237 33.013V24.98C199.237 22.66 199.469 21.674 199.469 20.833L199.063 20.572L192.654 21.239V22.167L193.669 22.805C194.51 23.356 194.655 23.443 194.655 24.661V33.013C194.655 34.231 194.539 34.434 193.582 34.666L192.741 34.869V36ZM207.958 36H210.626L215.034 24.806C215.817 22.95 216.02 22.486 216.861 22.254L217.441 22.08V20.949H211.612V22.08L212.424 22.283C213.033 22.428 213.323 22.776 213.323 23.385C213.323 23.762 213.207 24.284 212.975 24.98L210.684 31.592H210.539L208.103 24.98C207.871 24.313 207.668 23.82 207.668 23.443C207.668 22.747 207.958 22.486 208.625 22.283L209.408 22.08V20.949H200.766V22.08L201.317 22.254C202.158 22.486 202.419 22.892 203.115 24.516L207.958 36ZM225.058 36.348C228.074 36.348 230.336 35.043 231.351 33.97V32.665C230.191 33.216 228.857 33.767 226.914 33.767C223.898 33.767 222.129 32.375 221.897 28.112H231.786C231.699 22.631 229.147 20.543 225.058 20.543C221.143 20.543 217.344 23.414 217.344 28.402C217.344 33.361 219.867 36.348 225.058 36.348ZM224.855 21.993C226.711 21.993 227.175 22.95 227.175 26.401L221.897 26.662C222.042 23.24 223.26 21.993 224.855 21.993ZM238.073 36.348C242.336 36.348 244.743 34.202 244.743 31.186C244.743 28.924 243.264 27.59 239.813 26.372C237.348 25.531 236.565 24.922 236.565 23.936C236.565 22.66 237.493 22.022 238.972 22.022C240.161 22.022 240.509 22.312 240.944 22.747C241.524 23.414 242.017 23.994 242.626 25.009H243.699L243.554 21.065C242.655 20.746 241.205 20.543 239.465 20.543C235.463 20.543 233.201 22.66 233.201 25.415C233.201 27.822 234.854 29.098 237.522 30.113C240.074 31.041 241.147 31.621 241.147 32.955C241.147 34.231 240.219 34.869 238.624 34.869C237.319 34.869 236.507 34.463 235.956 33.883C235.173 33.042 234.825 32.462 234.274 31.36H233.114L233.375 35.797C234.564 36.116 236.333 36.348 238.073 36.348Z" fill="#5193C8"/>
<path fill-rule="evenodd" clip-rule="evenodd" d="M3 18.4716C3 27.568 10.3491 34.9432 19.4133 34.9432C24.4508 34.9432 35.8266 34.8804 35.8266 34.8804V18.4716C35.8266 9.37515 28.4776 2 19.4133 2C10.3491 2 3 9.37515 3 18.4716Z" stroke="#5193C8" stroke-width="2.5"/>
<path fill-rule="evenodd" clip-rule="evenodd" d="M19.4133 54.5116C28.4776 54.5116 35.8266 47.1372 35.8266 38.04C35.8266 32.9846 35.7641 21.5692 35.7641 21.5692H19.4133C10.3491 21.5692 3 28.9436 3 38.04C3 47.1372 10.3491 54.5116 19.4133 54.5116Z" stroke="#5193C8" stroke-width="2.5"/>
<path fill-rule="evenodd" clip-rule="evenodd" d="M54.5133 18.4716C54.5133 27.568 47.1651 34.9432 38.1008 34.9432C33.0633 34.9432 21.6875 34.8804 21.6875 34.8804V18.4716C21.6875 9.37515 29.0358 2 38.1008 2C47.1651 2 54.5133 9.37515 54.5133 18.4716Z" stroke="#5193C8" stroke-width="2.5"/>
<path fill-rule="evenodd" clip-rule="evenodd" d="M38.2638 54.5116C29.2887 54.5116 22.0134 47.2105 22.0134 38.2035C22.0134 33.1983 22.0746 21.8962 22.0746 21.8962H38.2638C47.2381 21.8962 54.5134 29.1974 54.5134 38.2035C54.5134 47.2105 47.2381 54.5116 38.2638 54.5116Z" stroke="#5193C8" stroke-width="2.5"/>
</svg>
